<?xml version="1.0" standalone="no"?>
<!DOCTYPE svg PUBLIC "-//W3C//DTD SVG 20010904//EN"
 "http://www.w3.org/TR/2001/REC-SVG-20010904/DTD/svg10.dtd">
<svg version="1.0" xmlns="http://www.w3.org/2000/svg"
 width="292.000000pt" height="256.000000pt" viewBox="0 0 292.000000 256.000000"
 preserveAspectRatio="xMidYMid meet">

<g transform="translate(0.000000,256.000000) scale(0.100000,-0.100000)"
fill="#000000" stroke="none">
<path d="M330 2100 c-13 -9 -13 -12 3 -24 9 -7 17 -18 17 -24 0 -6 9 -14 20
-17 11 -3 20 -13 20 -22 0 -8 9 -17 20 -20 11 -3 20 -12 20 -20 0 -8 13 -19
29 -24 17 -6 28 -17 27 -26 -1 -10 11 -19 31 -25 22 -6 30 -13 27 -23 -4 -9 5
-17 28 -23 22 -6 32 -14 30 -25 -2 -11 10 -20 38 -28 22 -7 40 -18 40 -26 0
-8 11 -13 29 -13 17 0 31 -6 35 -16 4 -10 14 -14 25 -11 17 4 18 0 14 -52 -7
-77 12 -190 46 -270 28 -65 52 -85 59 -46 2 11 11 28 19 37 9 10 13 28 11 42
-3 14 -1 30 3 37 4 7 -1 29 -12 50 -26 52 -25 60 17 100 39 38 111 143 139
202 31 66 47 71 201 64 75 -3 134 -3 131 -1 -9 9 -161 33 -210 34 -32 0 -57 7
-76 21 -15 11 -46 23 -68 26 -34 4 -45 1 -75 -26 l-35 -31 -114 54 c-217 102
-439 159 -489 126z"/>
<path d="M1584 1904 c-44 -16 -107 -70 -101 -88 2 -6 -9 -37 -24 -68 -16 -32
-29 -65 -29 -74 0 -9 -13 -33 -30 -54 l-29 -37 19 -39 c11 -21 20 -48 20 -60
0 -23 70 -94 93 -94 8 0 19 11 25 25 9 20 17 24 36 19 17 -4 28 0 38 15 14 20
15 20 69 -19 30 -22 70 -42 89 -46 19 -4 47 -16 61 -28 25 -21 25 -22 7 -51
-10 -17 -20 -34 -22 -40 -2 -5 -14 0 -27 12 -57 52 -179 79 -244 54 -16 -6
-10 -12 36 -33 42 -19 66 -40 100 -84 30 -39 55 -62 76 -68 29 -9 32 -14 35
-57 4 -57 13 -53 -167 -70 -218 -19 -496 10 -695 73 -213 68 -393 191 -452
309 -15 30 -27 46 -28 36 0 -25 37 -95 77 -144 101 -125 348 -240 618 -289
125 -22 407 -30 547 -14 419 46 759 234 803 445 5 23 2 20 -15 -14 -63 -133
-220 -248 -441 -322 -109 -36 -130 -36 -100 2 11 15 35 32 52 39 28 12 30 15
13 21 -33 13 -69 10 -109 -11 -22 -11 -41 -20 -43 -20 -8 0 11 88 29 129 16
37 22 42 41 37 13 -3 33 -6 46 -6 15 0 22 -6 22 -19 0 -11 5 -23 10 -26 6 -4
8 -15 5 -26 -5 -16 -1 -19 29 -19 20 0 44 4 54 9 9 5 25 12 35 15 11 3 17 15
17 34 0 16 6 35 14 41 8 7 18 26 21 42 4 16 11 29 16 29 16 0 10 54 -11 88
-26 42 -54 41 -94 -2 -40 -42 -58 -51 -128 -65 -48 -10 -61 -10 -88 4 -34 17
-34 18 -1 102 12 30 30 51 71 78 30 20 56 32 58 26 2 -6 15 -11 28 -11 14 0
27 -7 30 -15 4 -8 12 -15 18 -15 15 0 56 42 56 57 0 6 7 24 17 40 15 27 15 31
-3 58 -10 16 -25 44 -31 62 -7 18 -19 49 -26 68 -17 43 -42 63 -93 70 -60 9
-69 -3 -70 -88 0 -58 -5 -81 -22 -108 -34 -52 -72 -137 -72 -159 0 -11 -3 -20
-7 -20 -17 0 -68 78 -89 136 -19 52 -21 64 -9 74 16 13 13 82 -5 122 -12 25
-25 33 -70 43 -8 2 -33 -3 -56 -11z"/>
<path d="M1800 669 c0 -176 1 -190 18 -187 13 2 18 16 22 56 4 45 9 56 32 70
l28 17 73 -73 c57 -57 79 -72 102 -72 28 0 26 3 -55 85 -46 46 -82 86 -79 89
2 2 40 27 84 55 l80 51 -41 0 c-33 0 -55 -10 -119 -55 -44 -30 -85 -55 -92
-55 -10 0 -13 27 -13 105 0 98 -1 105 -20 105 -19 0 -20 -7 -20 -191z"/>
<path d="M1070 754 c-8 -3 -26 -11 -39 -17 -19 -9 -25 -9 -28 1 -3 6 -13 12
-24 12 -18 0 -19 -9 -19 -185 0 -178 1 -185 20 -185 18 0 20 7 20 53 0 30 3
56 6 59 3 3 19 -1 35 -9 21 -10 50 -14 90 -11 65 5 98 27 119 79 16 37 23 36
37 -1 23 -60 135 -91 209 -58 22 10 28 10 32 0 2 -6 12 -12 23 -12 19 0 19 7
17 137 -3 122 -5 138 -20 141 -12 2 -18 -3 -18 -13 0 -12 -5 -15 -17 -10 -86
35 -152 28 -200 -20 -18 -18 -33 -40 -33 -49 0 -27 -15 -18 -33 19 -9 19 -30
41 -46 50 -33 17 -107 28 -131 19z m116 -57 c20 -18 28 -35 31 -73 5 -43 2
-54 -22 -82 -24 -28 -33 -32 -79 -32 -64 0 -92 19 -106 70 -13 47 4 98 41 124
35 24 102 21 135 -7z m315 -6 c41 -41 41 -98 0 -143 -26 -29 -35 -33 -80 -33
-69 0 -104 33 -105 100 -1 41 3 50 32 76 46 41 111 41 153 0z"/>
<path d="M1725 750 c-16 -4 -38 -11 -47 -15 -11 -4 -18 -3 -18 4 0 6 -9 11
-20 11 -19 0 -20 -7 -20 -135 0 -128 1 -135 20 -135 18 0 20 7 20 86 0 84 1
87 34 120 21 21 44 34 60 34 19 0 26 5 26 20 0 21 -7 23 -55 10z"/>
</g>
</svg>
